<svg width="474" height="150" viewBox="0 0 474 150" fill="none" xmlns="http://www.w3.org/2000/svg">
<rect y="15" width="474" height="114" rx="30" fill="#D9D9D9"/>
<path d="M225.609 65.792C227.657 65.792 229.481 66.208 231.081 67.04C232.713 67.84 233.993 69.088 234.921 70.784C235.849 72.448 236.313 74.592 236.313 77.216V92H228.825V78.368C228.825 76.288 228.361 74.752 227.433 73.76C226.537 72.768 225.257 72.272 223.593 72.272C222.409 72.272 221.337 72.528 220.377 73.04C219.449 73.52 218.713 74.272 218.169 75.296C217.657 76.32 217.401 77.632 217.401 79.232V92H209.913V66.176H217.065V73.328L215.721 71.168C216.649 69.44 217.977 68.112 219.705 67.184C221.433 66.256 223.401 65.792 225.609 65.792ZM258.221 92V86.96L257.741 85.856V76.832C257.741 75.232 257.245 73.984 256.253 73.088C255.293 72.192 253.805 71.744 251.789 71.744C250.413 71.744 249.053 71.968 247.709 72.416C246.397 72.832 245.277 73.408 244.349 74.144L241.661 68.912C243.069 67.92 244.765 67.152 246.749 66.608C248.733 66.064 250.749 65.792 252.797 65.792C256.733 65.792 259.789 66.72 261.965 68.576C264.141 70.432 265.229 73.328 265.229 77.264V92H258.221ZM250.349 92.384C248.333 92.384 246.605 92.048 245.165 91.376C243.725 90.672 242.621 89.728 241.853 88.544C241.085 87.36 240.701 86.032 240.701 84.56C240.701 83.024 241.069 81.68 241.805 80.528C242.573 79.376 243.773 78.48 245.405 77.84C247.037 77.168 249.165 76.832 251.789 76.832H258.653V81.2H252.605C250.845 81.2 249.629 81.488 248.957 82.064C248.317 82.64 247.997 83.36 247.997 84.224C247.997 85.184 248.365 85.952 249.101 86.528C249.869 87.072 250.909 87.344 252.221 87.344C253.469 87.344 254.589 87.056 255.581 86.48C256.573 85.872 257.293 84.992 257.741 83.84L258.893 87.296C258.349 88.96 257.357 90.224 255.917 91.088C254.477 91.952 252.621 92.384 250.349 92.384ZM269.51 92V87.488L284.774 69.44L286.07 71.936H269.846V66.176H292.118V70.688L276.854 88.736L275.51 86.24H292.55V92H269.51ZM308.588 92.384C305.836 92.384 303.388 91.808 301.244 90.656C299.132 89.504 297.452 87.936 296.204 85.952C294.988 83.936 294.38 81.648 294.38 79.088C294.38 76.496 294.988 74.208 296.204 72.224C297.452 70.208 299.132 68.64 301.244 67.52C303.388 66.368 305.836 65.792 308.588 65.792C311.308 65.792 313.74 66.368 315.884 67.52C318.028 68.64 319.708 70.192 320.924 72.176C322.14 74.16 322.748 76.464 322.748 79.088C322.748 81.648 322.14 83.936 320.924 85.952C319.708 87.936 318.028 89.504 315.884 90.656C313.74 91.808 311.308 92.384 308.588 92.384ZM308.588 86.24C309.836 86.24 310.956 85.952 311.948 85.376C312.94 84.8 313.724 83.984 314.3 82.928C314.876 81.84 315.164 80.56 315.164 79.088C315.164 77.584 314.876 76.304 314.3 75.248C313.724 74.192 312.94 73.376 311.948 72.8C310.956 72.224 309.836 71.936 308.588 71.936C307.34 71.936 306.22 72.224 305.228 72.8C304.236 73.376 303.436 74.192 302.828 75.248C302.252 76.304 301.964 77.584 301.964 79.088C301.964 80.56 302.252 81.84 302.828 82.928C303.436 83.984 304.236 84.8 305.228 85.376C306.22 85.952 307.34 86.24 308.588 86.24ZM342.298 92.384C340.025 92.384 338.073 91.904 336.441 90.944C334.809 89.984 333.561 88.528 332.697 86.576C331.833 84.592 331.401 82.096 331.401 79.088C331.401 76.048 331.849 73.552 332.746 71.6C333.674 69.648 334.954 68.192 336.586 67.232C338.218 66.272 340.122 65.792 342.298 65.792C344.73 65.792 346.906 66.336 348.826 67.424C350.778 68.512 352.314 70.048 353.434 72.032C354.586 74.016 355.162 76.368 355.162 79.088C355.162 81.776 354.586 84.112 353.434 86.096C352.314 88.08 350.778 89.632 348.826 90.752C346.906 91.84 344.73 92.384 342.298 92.384ZM327.033 92V56.384H334.522V71.408L334.041 79.04L334.186 86.72V92H327.033ZM341.001 86.24C342.249 86.24 343.353 85.952 344.313 85.376C345.306 84.8 346.09 83.984 346.666 82.928C347.273 81.84 347.577 80.56 347.577 79.088C347.577 77.584 347.273 76.304 346.666 75.248C346.09 74.192 345.306 73.376 344.313 72.8C343.353 72.224 342.249 71.936 341.001 71.936C339.753 71.936 338.633 72.224 337.641 72.8C336.65 73.376 335.866 74.192 335.29 75.248C334.714 76.304 334.425 77.584 334.425 79.088C334.425 80.56 334.714 81.84 335.29 82.928C335.866 83.984 336.65 84.8 337.641 85.376C338.633 85.952 339.753 86.24 341.001 86.24ZM374.872 92V86.96L374.392 85.856V76.832C374.392 75.232 373.896 73.984 372.904 73.088C371.944 72.192 370.456 71.744 368.44 71.744C367.064 71.744 365.704 71.968 364.36 72.416C363.048 72.832 361.928 73.408 361 74.144L358.312 68.912C359.72 67.92 361.416 67.152 363.4 66.608C365.384 66.064 367.4 65.792 369.448 65.792C373.384 65.792 376.44 66.72 378.616 68.576C380.792 70.432 381.88 73.328 381.88 77.264V92H374.872ZM367 92.384C364.984 92.384 363.256 92.048 361.816 91.376C360.376 90.672 359.272 89.728 358.504 88.544C357.736 87.36 357.352 86.032 357.352 84.56C357.352 83.024 357.72 81.68 358.456 80.528C359.224 79.376 360.424 78.48 362.056 77.84C363.688 77.168 365.816 76.832 368.44 76.832H375.304V81.2H369.256C367.496 81.2 366.28 81.488 365.608 82.064C364.968 82.64 364.648 83.36 364.648 84.224C364.648 85.184 365.016 85.952 365.752 86.528C366.52 87.072 367.56 87.344 368.872 87.344C370.12 87.344 371.24 87.056 372.232 86.48C373.224 85.872 373.944 84.992 374.392 83.84L375.544 87.296C375 88.96 374.008 90.224 372.568 91.088C371.128 91.952 369.272 92.384 367 92.384ZM396.625 92.384C394.417 92.384 392.289 92.128 390.241 91.616C388.225 91.072 386.625 90.4 385.441 89.6L387.937 84.224C389.121 84.96 390.513 85.568 392.113 86.048C393.745 86.496 395.345 86.72 396.913 86.72C398.641 86.72 399.857 86.512 400.561 86.096C401.297 85.68 401.665 85.104 401.665 84.368C401.665 83.76 401.377 83.312 400.801 83.024C400.257 82.704 399.521 82.464 398.593 82.304C397.665 82.144 396.641 81.984 395.521 81.824C394.433 81.664 393.329 81.456 392.209 81.2C391.089 80.912 390.065 80.496 389.137 79.952C388.209 79.408 387.457 78.672 386.881 77.744C386.337 76.816 386.065 75.616 386.065 74.144C386.065 72.512 386.529 71.072 387.457 69.824C388.417 68.576 389.793 67.6 391.585 66.896C393.377 66.16 395.521 65.792 398.017 65.792C399.777 65.792 401.569 65.984 403.393 66.368C405.217 66.752 406.737 67.312 407.953 68.048L405.457 73.376C404.209 72.64 402.945 72.144 401.665 71.888C400.417 71.6 399.201 71.456 398.017 71.456C396.353 71.456 395.137 71.68 394.369 72.128C393.601 72.576 393.217 73.152 393.217 73.856C393.217 74.496 393.489 74.976 394.033 75.296C394.609 75.616 395.361 75.872 396.289 76.064C397.217 76.256 398.225 76.432 399.313 76.592C400.433 76.72 401.553 76.928 402.673 77.216C403.793 77.504 404.801 77.92 405.697 78.464C406.625 78.976 407.377 79.696 407.953 80.624C408.529 81.52 408.817 82.704 408.817 84.176C408.817 85.776 408.337 87.2 407.377 88.448C406.417 89.664 405.025 90.624 403.201 91.328C401.409 92.032 399.217 92.384 396.625 92.384ZM425.533 92.384C422.589 92.384 419.997 91.808 417.757 90.656C415.549 89.504 413.837 87.936 412.621 85.952C411.405 83.936 410.797 81.648 410.797 79.088C410.797 76.496 411.389 74.208 412.573 72.224C413.789 70.208 415.437 68.64 417.517 67.52C419.597 66.368 421.949 65.792 424.573 65.792C427.101 65.792 429.373 66.336 431.389 67.424C433.437 68.48 435.053 70.016 436.237 72.032C437.421 74.016 438.013 76.4 438.013 79.184C438.013 79.472 437.997 79.808 437.965 80.192C437.933 80.544 437.901 80.88 437.869 81.2H416.893V76.832H433.933L431.053 78.128C431.053 76.784 430.781 75.616 430.237 74.624C429.693 73.632 428.941 72.864 427.981 72.32C427.021 71.744 425.901 71.456 424.621 71.456C423.341 71.456 422.205 71.744 421.213 72.32C420.253 72.864 419.501 73.648 418.957 74.672C418.413 75.664 418.141 76.848 418.141 78.224V79.376C418.141 80.784 418.445 82.032 419.053 83.12C419.693 84.176 420.573 84.992 421.693 85.568C422.845 86.112 424.189 86.384 425.725 86.384C427.101 86.384 428.301 86.176 429.325 85.76C430.381 85.344 431.341 84.72 432.205 83.888L436.189 88.208C435.005 89.552 433.517 90.592 431.725 91.328C429.933 92.032 427.869 92.384 425.533 92.384Z" fill="black"/>
<path d="M105.887 30.25L136.198 82.75C143.704 95.75 134.322 112 119.311 112H58.6891C43.678 112 34.2961 95.75 41.8016 82.75L72.1125 30.25C79.6181 17.25 98.3819 17.25 105.887 30.25Z" stroke="black"/>
<path d="M72.262 40.125C79.4789 27.625 97.5211 27.625 104.738 40.125V40.125C111.955 52.625 102.934 68.25 88.5 68.25V68.25C74.0662 68.25 65.0451 52.625 72.262 40.125V40.125Z" fill="#D43131"/>
<path d="M49.262 82.125C56.4789 69.625 74.5211 69.625 81.738 82.125V82.125C88.9549 94.625 79.9338 110.25 65.5 110.25V110.25C51.0662 110.25 42.0451 94.625 49.262 82.125V82.125Z" fill="#F04411"/>
<path d="M97.262 82.125C104.479 69.625 122.521 69.625 129.738 82.125V82.125C136.955 94.625 127.934 110.25 113.5 110.25V110.25C99.0662 110.25 90.0451 94.625 97.262 82.125V82.125Z" fill="#6997B7" fill-opacity="0.6"/>
</svg>
